<?xml version="1.0" encoding="utf-8"?>
<!-- Generator: Adobe Illustrator 23.0.1, SVG Export Plug-In . SVG Version: 6.00 Build 0)  -->
<svg version="1.1" id="Layer_1" xmlns="http://www.w3.org/2000/svg" xmlns:xlink="http://www.w3.org/1999/xlink" x="0px" y="0px"
	 viewBox="0 0 16 16" style="enable-background:new 0 0 16 16;" xml:space="preserve">
<style type="text/css">
	.st0{fill:#FFFFFF;}
</style>
<path class="st0" d="M4.9,10.8c0.3-0.2,0.6-0.3,1-0.4C4.5,9.2,4.3,7,5.6,5.6S9,4.1,10.4,5.3c1.1,1,1.5,2.5,0.9,3.9
	c0.3,0.1,0.6,0.2,0.9,0.3c0.2-0.5,0.3-1.1,0.3-1.6c0-2.4-2-4.4-4.4-4.4s-4.4,2-4.4,4.4C3.7,9,4.1,10,4.9,10.8z"/>
<path class="st0" d="M13.6,10.7c-0.2,0-0.4,0-0.6,0.1c-0.8-0.8-1.8-1.2-2.9-1.2c-1.1,0-2.2,0.5-3,1.4c-0.2,0-0.4-0.1-0.6-0.1
	c-1,0-1.9,0.4-2.4,1.2C4,12,3.8,12,3.7,12C2.7,12,2,12.7,2,13.7c0,0.9,0.7,1.7,1.7,1.7c0.3,0,0.6-0.1,0.9-0.3c0.6,0.5,1.3,0.7,2,0.7
	c0.5,0,1-0.1,1.5-0.4c0.6,0.4,1.3,0.6,2.1,0.6c0.8,0,1.6-0.3,2.3-0.8c0.3,0.2,0.7,0.3,1.1,0.3c1.3,0,2.4-1.1,2.4-2.4
	C15.9,11.8,14.9,10.8,13.6,10.7z M13.6,14.6c-0.2,0-0.5-0.1-0.7-0.2c-0.1-0.1-0.3-0.1-0.5-0.1c-0.2,0-0.4,0.1-0.6,0.2
	c-0.5,0.4-1.1,0.6-1.7,0.6c-0.5,0-1.1-0.1-1.6-0.4c-0.2-0.1-0.3-0.1-0.5-0.1c-0.2,0-0.3,0-0.5,0.1c-0.3,0.2-0.7,0.3-1,0.3
	c-0.5,0-1-0.2-1.3-0.5c-0.2-0.2-0.4-0.2-0.7-0.2c-0.2,0-0.6,0.3-0.9,0.3c-0.4,0-0.6-0.4-0.6-0.8c0-0.3,0.3-0.6,0.6-0.6
	c0,0,0.4,0.1,0.5,0.1c0.3,0,0.6-0.1,0.8-0.4c0.4-0.5,1-0.8,1.6-0.8c0.1,0,0.5,0.1,0.6,0.1c0.3,0,0.5-0.1,0.7-0.4
	c0.6-0.6,1.4-1,2.2-1c0.8,0,1.6,0.3,2.2,0.9c0.2,0.2,0.4,0.3,0.7,0.3c0.1,0,0.5-0.1,0.6-0.1c0.8,0.1,1.3,0.7,1.4,1.4
	C15,13.9,14.4,14.6,13.6,14.6z M8,2.5c0.3,0,0.5-0.2,0.5-0.5V0.5C8.5,0.2,8.3,0,8,0c0,0,0,0,0,0C7.7,0,7.5,0.2,7.5,0.5V2
	C7.5,2.3,7.7,2.5,8,2.5C8,2.5,8,2.5,8,2.5z M3.4,4.1c0.2,0.2,0.5,0.2,0.7,0c0,0,0,0,0,0c0.2-0.2,0.2-0.5,0-0.7c0,0,0,0,0,0L3.1,2.4
	c-0.2-0.2-0.5-0.2-0.7,0s-0.2,0.5,0,0.7L3.4,4.1z M2.5,8c0-0.3-0.2-0.5-0.5-0.5H0.5C0.2,7.5,0,7.7,0,8c0,0.3,0.2,0.5,0.5,0.5H2
	C2.3,8.5,2.5,8.3,2.5,8C2.5,8,2.5,8,2.5,8z M13.5,8c0,0.3,0.2,0.5,0.5,0.5h1.5C15.7,8.5,16,8.3,16,8c0,0,0,0,0,0
	c0-0.3-0.2-0.5-0.5-0.5H14C13.7,7.5,13.5,7.7,13.5,8C13.5,8,13.5,8,13.5,8z M12.3,4.3c0.1,0,0.3-0.1,0.4-0.2l1.1-1.1
	c0.2-0.2,0.2-0.5,0-0.7c-0.2-0.2-0.5-0.2-0.7,0l-1.1,1.1c-0.2,0.2-0.2,0.5,0,0.7c0,0,0,0,0,0C12,4.2,12.1,4.3,12.3,4.3z"/>
</svg>
