<?xml version="1.0" encoding="utf-8"?>
<!-- Generator: Adobe Illustrator 23.0.1, SVG Export Plug-In . SVG Version: 6.00 Build 0)  -->
<svg version="1.1" id="Layer_1" xmlns="http://www.w3.org/2000/svg" xmlns:xlink="http://www.w3.org/1999/xlink" x="0px" y="0px"
	 viewBox="0 0 16 16" style="enable-background:new 0 0 16 16;" xml:space="preserve">
<style type="text/css">
	.st0{fill:#FFFFFF;}
</style>
<path class="st0" d="M3.7,8.5c0.4,0,0.9-0.1,1.2-0.3c1.7,1.6,4.4,1.6,6.1,0c1.6,0.7,3.5-0.1,4.2-1.7c0.7-1.6-0.1-3.5-1.7-4.2
	c-0.4-0.2-0.8-0.3-1.2-0.3c-0.1,0-0.3,0-0.4,0C10.5,0,7.6-0.7,5.4,0.8c-0.5,0.4-1,0.8-1.4,1.4c-0.1,0-0.3,0-0.4,0
	c-1.8,0-3.2,1.4-3.2,3.2S1.9,8.5,3.7,8.5z M3.7,3.1c0.1,0,0.1,0,0.2,0l0.1,0c0.4,0,0.8-0.1,1-0.4C6,1,8.3,0.5,10,1.6
	c0.4,0.3,0.8,0.6,1.1,1.1c0.2,0.3,0.6,0.5,1,0.4l0.1,0c0.1,0,0.1,0,0.2,0c1.2,0,2.2,1,2.2,2.2s-1,2.2-2.2,2.2
	c-0.3,0-0.6-0.1-0.8-0.2c-0.4-0.2-0.8-0.1-1.1,0.2C9,8.7,6.9,8.7,5.6,7.4c-0.3-0.3-0.7-0.3-1-0.2c-1.1,0.5-2.4,0-2.9-1.2
	s0-2.4,1.2-2.9C3.1,3.1,3.4,3.1,3.7,3.1L3.7,3.1z M8.4,13.3L9,13.1c0.1-0.1,0.2-0.3,0.1-0.4c-0.1-0.1-0.3-0.2-0.4-0.1l-0.5,0.3v-0.6
	c0-0.2-0.1-0.3-0.3-0.3c-0.2,0-0.3,0.1-0.3,0.3v0.6L7,12.5c-0.1-0.1-0.3,0-0.4,0.1c-0.1,0.1,0,0.3,0.1,0.4l0.5,0.3l-0.5,0.3
	c-0.1,0.1-0.2,0.3-0.1,0.4c0.1,0.1,0.3,0.2,0.4,0.1l0.5-0.3v0.6c0,0.2,0.1,0.3,0.3,0.3c0.2,0,0.3-0.1,0.3-0.3v-0.6l0.5,0.3
	c0.1,0.1,0.3,0,0.4-0.1c0.1-0.1,0-0.3-0.1-0.4L8.4,13.3z M4.9,11.8l0.5-0.3c0.1-0.1,0.2-0.3,0.1-0.4c-0.1-0.1-0.3-0.2-0.4-0.1
	l-0.5,0.3v-0.6c0-0.2-0.1-0.3-0.3-0.3c-0.2,0-0.3,0.1-0.3,0.3v0.6L3.4,11c-0.1-0.1-0.3,0-0.4,0.1c-0.1,0.1,0,0.3,0.1,0.4l0.5,0.3
	l-0.5,0.3C3,12.2,3,12.4,3,12.5c0.1,0.1,0.3,0.2,0.4,0.1L4,12.3v0.6c0,0.2,0.1,0.3,0.3,0.3c0.2,0,0.3-0.1,0.3-0.3v-0.6l0.5,0.3
	c0.1,0.1,0.3,0,0.4-0.1c0.1-0.1,0-0.3-0.1-0.4L4.9,11.8z M12.1,11.8l0.5-0.3c0.1-0.1,0.2-0.3,0.1-0.4c-0.1-0.1-0.3-0.2-0.4-0.1
	l-0.5,0.3v-0.6c0-0.2-0.1-0.3-0.3-0.3s-0.3,0.1-0.3,0.3v0.6L10.7,11c-0.1-0.1-0.3,0-0.4,0.1c-0.1,0.1,0,0.3,0.1,0.4l0.5,0.3
	l-0.5,0.3c-0.1,0.1-0.2,0.3-0.1,0.4c0.1,0.1,0.3,0.2,0.4,0.1l0.5-0.3v0.6c0,0.2,0.1,0.3,0.3,0.3s0.3-0.1,0.3-0.3v-0.6l0.5,0.3
	c0.1,0.1,0.3,0,0.4-0.1c0.1-0.1,0-0.3-0.1-0.4L12.1,11.8z M15.8,10.3L15.3,10l0.5-0.3C16,9.6,16,9.4,15.9,9.3
	c-0.1-0.1-0.3-0.2-0.4-0.1L15,9.4V8.8c0-0.2-0.1-0.3-0.3-0.3c-0.2,0-0.3,0.1-0.3,0.3v0.6l-0.5-0.3c-0.1-0.1-0.3,0-0.4,0.1
	c-0.1,0.1,0,0.3,0.1,0.4l0.5,0.3l-0.5,0.3c-0.1,0.1-0.2,0.3-0.1,0.4c0.1,0.1,0.3,0.2,0.4,0.1l0.5-0.3v0.6c0,0.2,0.1,0.3,0.3,0.3
	s0.3-0.1,0.3-0.3v-0.6l0.5,0.3c0.1,0.1,0.3,0,0.4-0.1C16,10.5,16,10.4,15.8,10.3z M1.9,10l0.5-0.3c0.1-0.1,0.2-0.3,0.1-0.4
	C2.4,9.1,2.2,9.1,2.1,9.2L1.6,9.4V8.8c0-0.2-0.1-0.3-0.3-0.3S1,8.7,1,8.8v0.6L0.5,9.2C0.3,9.1,0.1,9.1,0,9.3C0,9.4,0,9.6,0.2,9.7
	L0.7,10l-0.5,0.3C0,10.4,0,10.5,0,10.7c0.1,0.1,0.3,0.2,0.4,0.1l0,0L1,10.5v0.6c0,0.2,0.1,0.3,0.3,0.3s0.3-0.1,0.3-0.3v-0.6l0.5,0.3
	c0.1,0.1,0.3,0,0.4-0.1c0.1-0.1,0-0.3-0.1-0.4L1.9,10z"/>
</svg>
