<?xml version="1.0" encoding="utf-8"?>
<!-- Generator: Adobe Illustrator 23.0.1, SVG Export Plug-In . SVG Version: 6.00 Build 0)  -->
<svg version="1.1" id="Layer_1" xmlns="http://www.w3.org/2000/svg" xmlns:xlink="http://www.w3.org/1999/xlink" x="0px" y="0px"
	 viewBox="0 0 16 16" style="enable-background:new 0 0 16 16;" xml:space="preserve">
<style type="text/css">
	.st0{fill:#FFFFFF;}
</style>
<path class="st0" d="M12.3,2.1c-0.1,0-0.3,0-0.4,0C10.5,0,7.6-0.7,5.5,0.8c-0.5,0.4-1,0.8-1.4,1.4c-0.1,0-0.3,0-0.4,0
	c-1.8,0-3.2,1.4-3.2,3.2s1.4,3.2,3.2,3.2c0.4,0,0.8-0.1,1.2-0.3c1.7,1.6,4.4,1.6,6.1,0c1.6,0.7,3.5-0.1,4.2-1.7
	c0.7-1.6-0.1-3.5-1.7-4.2C13.2,2.2,12.7,2.1,12.3,2.1z M12.3,7.5c-0.3,0-0.6-0.1-0.9-0.2c-0.4-0.2-0.8-0.1-1.1,0.2
	C9,8.7,7,8.7,5.6,7.4c-0.3-0.3-0.7-0.3-1-0.2c-1.1,0.5-2.4,0-2.9-1.2s0-2.4,1.2-2.9c0.3-0.1,0.6-0.2,0.9-0.2c0.1,0,0.1,0,0.2,0
	l0.1,0c0.4,0,0.8-0.1,1-0.4C6,1,8.3,0.5,10,1.6c0.4,0.3,0.8,0.6,1.1,1.1c0.2,0.3,0.6,0.5,1,0.4l0.1,0c0.1,0,0.1,0,0.2,0
	c1.2,0,2.2,1,2.2,2.2S13.5,7.5,12.3,7.5L12.3,7.5z M11.3,12.5l-0.4-0.3l0.4-0.3c0.2-0.1,0.2-0.3,0.1-0.5s-0.3-0.2-0.5-0.1l-0.4,0.3
	v-0.5c0-0.2-0.1-0.4-0.3-0.4s-0.4,0.1-0.4,0.3c0,0,0,0,0,0v0.5l-0.4-0.3c-0.2-0.1-0.4,0-0.5,0.1c-0.1,0.2,0,0.4,0.1,0.5l0.4,0.3
	L9,12.5c-0.2,0.1-0.2,0.3-0.1,0.5c0.1,0.2,0.3,0.2,0.5,0.1c0,0,0,0,0,0l0.4-0.3v0.5c0,0.2,0.2,0.4,0.3,0.4s0.4-0.2,0.4-0.3
	c0,0,0,0,0,0v-0.5l0.4,0.3c0.2,0.1,0.4,0,0.5-0.1C11.5,12.8,11.4,12.6,11.3,12.5z M6.5,12.5l-0.4-0.3L6.5,12
	c0.2-0.1,0.2-0.3,0.1-0.5c-0.1-0.2-0.3-0.2-0.5-0.1l-0.4,0.3v-0.5c0-0.2-0.1-0.4-0.3-0.4c-0.2,0-0.4,0.1-0.4,0.3c0,0,0,0,0,0v0.5
	l-0.4-0.3c-0.2-0.1-0.4,0-0.5,0.1c-0.1,0.2,0,0.4,0.1,0.5l0.4,0.3l-0.4,0.3c-0.2,0.1-0.2,0.3-0.1,0.5c0.1,0.2,0.3,0.2,0.5,0.1
	c0,0,0,0,0,0L5,12.8v0.5c0,0.2,0.2,0.4,0.3,0.4s0.4-0.2,0.4-0.3c0,0,0,0,0,0v-0.5l0.4,0.3c0.2,0.1,0.4,0,0.5-0.1
	C6.7,12.8,6.7,12.6,6.5,12.5L6.5,12.5z"/>
</svg>
