<?xml version="1.0" encoding="utf-8"?>
<!-- Generator: Adobe Illustrator 23.0.1, SVG Export Plug-In . SVG Version: 6.00 Build 0)  -->
<svg version="1.1" id="Layer_1" xmlns="http://www.w3.org/2000/svg" xmlns:xlink="http://www.w3.org/1999/xlink" x="0px" y="0px"
	 viewBox="0 0 16 16" style="enable-background:new 0 0 16 16;" xml:space="preserve">
<style type="text/css">
	.st0{fill:#FFFFFF;}
</style>
<path class="st0" d="M5,1.8C5,2,5.3,2.2,5.5,2.2c0,0,0.1,0,0.1,0C5.9,2.1,6.1,1.8,6,1.6L5.7,0.4C5.7,0.1,5.4,0,5.1,0
	C4.9,0.1,4.7,0.4,4.7,0.6L5,1.8z M1.3,3.5l1,0.6C2.5,4.3,2.8,4.2,3,4c0.1-0.2,0.1-0.6-0.2-0.7l-1-0.6C1.6,2.5,1.3,2.6,1.1,2.8
	C1,3.1,1,3.4,1.3,3.5z M0.9,8L2,7.8c0.3-0.1,0.5-0.3,0.4-0.6S2.1,6.7,1.8,6.8l0,0L0.7,7C0.4,7.1,0.2,7.4,0.3,7.6
	c0.1,0.2,0.3,0.4,0.5,0.4C0.8,8.1,0.8,8.1,0.9,8z M11.1,5.8c0,0,0.1,0,0.1,0l1.1-0.3c0.3-0.1,0.5-0.3,0.4-0.6
	c-0.1-0.3-0.3-0.5-0.6-0.4L11,4.7c-0.3,0.1-0.5,0.3-0.4,0.6C10.7,5.6,10.9,5.8,11.1,5.8z M8.8,2.7C9,2.9,9.3,2.8,9.5,2.6l0.6-1
	c0.1-0.2,0.1-0.6-0.2-0.7C9.7,0.7,9.4,0.8,9.2,1L8.6,2C8.5,2.3,8.5,2.6,8.8,2.7z M3.1,7c0.1,0.3,0.2,0.6,0.3,0.9
	C3.7,7.8,4,7.6,4.3,7.4C4.2,7.2,4.1,7,4.1,6.8C3.8,5.5,4.6,4.1,6,3.8c1.3-0.3,2.7,0.5,3,1.9c0,0,0,0,0,0c0,0,0,0,0,0
	C9.3,5.8,9.7,5.9,10,6c0-0.2,0-0.3-0.1-0.5C9.5,3.6,7.7,2.4,5.8,2.8S2.6,5.1,3.1,7L3.1,7z"/>
<path class="st0" d="M12.7,8.5c-0.1,0-0.3,0-0.4,0c-1.5-2.2-4.4-2.9-6.7-1.4C5.1,7.5,4.6,8,4.2,8.5c-0.1,0-0.3,0-0.4,0
	C2,8.5,0.5,10,0.5,11.8S2,15.1,3.8,15c0.4,0,0.9-0.1,1.3-0.3c1.8,1.6,4.5,1.6,6.3,0c1.7,0.7,3.6-0.1,4.3-1.7S15.7,9.5,14,8.7
	C13.6,8.6,13.2,8.5,12.7,8.5z M12.7,14c-0.3,0-0.6-0.1-0.9-0.2c-0.4-0.2-0.8-0.1-1.1,0.2c-1.4,1.3-3.6,1.3-5,0
	c-0.3-0.3-0.7-0.3-1.1-0.2c-1.1,0.5-2.5,0-3-1.2s0-2.5,1.2-3c0.3-0.1,0.6-0.2,0.9-0.2c0.1,0,0.1,0,0.2,0l0.1,0c0.4,0,0.8-0.1,1-0.5
	C6.2,7.3,8.6,6.8,10.3,8c0.4,0.3,0.8,0.7,1.1,1.1c0.2,0.3,0.6,0.5,1,0.5l0.1,0c0.1,0,0.1,0,0.2,0c1.2,0,2.3,1,2.3,2.3S14,14,12.7,14
	C12.7,14,12.7,14,12.7,14z"/>
</svg>
