<?xml version="1.0" encoding="utf-8"?>
<!-- Generator: Adobe Illustrator 23.0.1, SVG Export Plug-In . SVG Version: 6.00 Build 0)  -->
<svg version="1.1" id="Layer_1" xmlns="http://www.w3.org/2000/svg" xmlns:xlink="http://www.w3.org/1999/xlink" x="0px" y="0px"
	 viewBox="0 0 16 16" style="enable-background:new 0 0 16 16;" xml:space="preserve">
<style type="text/css">
	.st0{fill:#FFFFFF;}
</style>
<path class="st0" d="M5.6,3.4C5.5,4.3,5.6,5.2,5.9,6C6.5,8,8,9.5,9.9,10.2c0.7,0.2,1.4,0.4,2.2,0.4c0.2,0,0.4,0,0.7,0
	c-0.9,1.5-2.6,2.5-4.4,2.5c-0.1,0-0.2,0-0.3,0C5.2,12.8,3,10.3,3.2,7.5C3.3,5.8,4.2,4.3,5.6,3.4 M6.3,2C6.2,2,6.1,2,6.1,2
	C3.6,3,2,5.5,2.2,8.2C2.4,11.3,4.9,13.8,8,14c0.1,0,0.2,0,0.4,0c2.6,0,4.9-1.6,5.8-4c0.1-0.3,0-0.5-0.3-0.6c-0.1,0-0.1,0-0.2,0
	c0,0-0.1,0-0.1,0c-0.5,0.1-0.9,0.2-1.4,0.2c-0.6,0-1.3-0.1-1.9-0.3C7.6,8.3,6,5.4,6.7,2.6C6.8,2.4,6.6,2.1,6.4,2C6.3,2,6.3,2,6.3,2z
	"/>
</svg>
