<?xml version="1.0" encoding="utf-8"?>
<!-- Generator: Adobe Illustrator 23.0.1, SVG Export Plug-In . SVG Version: 6.00 Build 0)  -->
<svg version="1.1" id="Layer_1" xmlns="http://www.w3.org/2000/svg" xmlns:xlink="http://www.w3.org/1999/xlink" x="0px" y="0px"
	 viewBox="0 0 16 16" style="enable-background:new 0 0 16 16;" xml:space="preserve">
<style type="text/css">
	.st0{fill:#FFFFFF;}
</style>
<path class="st0" d="M8,4.5c1.9,0,3.5,1.6,3.5,3.5S9.9,11.5,8,11.5S4.5,9.9,4.5,8C4.5,6.1,6.1,4.5,8,4.5 M8,3.5
	c-2.5,0-4.5,2-4.5,4.5s2,4.5,4.5,4.5s4.5-2,4.5-4.5S10.5,3.5,8,3.5z M8,2.5C7.7,2.5,7.5,2.3,7.5,2V0.5C7.5,0.2,7.7,0,8,0
	c0.3,0,0.5,0.2,0.5,0.5V2C8.5,2.3,8.3,2.5,8,2.5z M8,2.5C7.7,2.5,7.5,2.3,7.5,2V0.5C7.5,0.2,7.7,0,8,0c0.3,0,0.5,0.2,0.5,0.5V2
	C8.5,2.3,8.3,2.5,8,2.5z M3.8,4.3c-0.1,0-0.3-0.1-0.4-0.1L2.3,3c-0.2-0.2-0.2-0.5,0-0.7c0.2-0.2,0.5-0.2,0.7,0l1.1,1.1
	c0.2,0.2,0.2,0.5,0,0.7C4,4.2,3.9,4.3,3.8,4.3L3.8,4.3z M2,8.5H0.5C0.2,8.5,0,8.3,0,8c0-0.3,0.2-0.5,0.5-0.5H2
	c0.3,0,0.5,0.2,0.5,0.5C2.5,8.3,2.3,8.5,2,8.5z M2.7,13.8c-0.3,0-0.5-0.2-0.5-0.5c0-0.1,0.1-0.3,0.1-0.4l1.1-1.1
	c0.2-0.2,0.5-0.2,0.7,0c0.2,0.2,0.2,0.5,0,0.7L3,13.6C3,13.7,2.8,13.8,2.7,13.8z M8,16c-0.3,0-0.5-0.2-0.5-0.5V14
	c0-0.3,0.2-0.5,0.5-0.5c0.3,0,0.5,0.2,0.5,0.5v1.5C8.5,15.8,8.3,16,8,16z M13.3,13.8c-0.1,0-0.3-0.1-0.4-0.1l-1.1-1.1
	c-0.2-0.2-0.2-0.5,0-0.7s0.5-0.2,0.7,0c0,0,0,0,0,0l1.1,1.1c0.2,0.2,0.2,0.5,0,0.7C13.6,13.8,13.4,13.8,13.3,13.8z M15.5,8.5H14
	c-0.3,0-0.5-0.2-0.5-0.5c0-0.3,0.2-0.5,0.5-0.5h1.5C15.8,7.5,16,7.7,16,8C16,8.3,15.8,8.5,15.5,8.5z M12.2,4.3
	c-0.3,0-0.5-0.2-0.5-0.5c0-0.1,0.1-0.3,0.1-0.4L13,2.4c0.2-0.2,0.5-0.2,0.7,0c0.2,0.2,0.2,0.5,0,0.7l-1.1,1.1
	C12.5,4.2,12.4,4.3,12.2,4.3z"/>
</svg>
