<?xml version="1.0" encoding="utf-8"?>
<!-- Generator: Adobe Illustrator 23.0.1, SVG Export Plug-In . SVG Version: 6.00 Build 0)  -->
<svg version="1.1" id="Layer_1" xmlns="http://www.w3.org/2000/svg" xmlns:xlink="http://www.w3.org/1999/xlink" x="0px" y="0px"
	 viewBox="0 0 16 16" style="enable-background:new 0 0 16 16;" xml:space="preserve">
<style type="text/css">
	.st0{fill:#FFFFFF;}
</style>
<path class="st0" d="M8,2.5c0.3,0,0.5-0.2,0.5-0.5V0.5C8.5,0.2,8.3,0,8,0C7.7,0,7.5,0.2,7.5,0.5V2C7.5,2.3,7.7,2.5,8,2.5z M3.4,4.1
	c0.2,0.2,0.5,0.2,0.7,0c0.2-0.2,0.2-0.5,0-0.7c0,0,0,0,0,0L3.1,2.3c-0.2-0.2-0.5-0.2-0.7,0C2.1,2.5,2.1,2.8,2.3,3c0,0,0,0,0,0
	L3.4,4.1z M2.5,8c0-0.3-0.2-0.5-0.5-0.5H0.5C0.2,7.5,0,7.7,0,8c0,0.3,0.2,0.5,0.5,0.5H2C2.3,8.5,2.5,8.3,2.5,8z M3.4,11.9l-1.1,1.1
	c-0.2,0.2-0.2,0.5,0,0.7c0.2,0.2,0.5,0.2,0.7,0c0,0,0,0,0,0l1.1-1.1c0.2-0.2,0.2-0.5,0-0.7C3.9,11.7,3.6,11.7,3.4,11.9z M13.5,8
	c0,0.3,0.2,0.5,0.5,0.5h1.5C15.8,8.5,16,8.3,16,8c0-0.3-0.2-0.5-0.5-0.5H14C13.7,7.5,13.5,7.7,13.5,8z M12.2,4.3
	c0.1,0,0.3-0.1,0.4-0.1l1.1-1.1c0.2-0.2,0.2-0.5,0-0.7c-0.2-0.2-0.5-0.2-0.7,0l0,0l-1.1,1.1c-0.2,0.2-0.2,0.5,0,0.7
	C12,4.2,12.1,4.3,12.2,4.3z M4.5,8c0-1.9,1.6-3.5,3.5-3.5c1.9,0,3.5,1.6,3.5,3.5c0,0,0,0,0,0c0,0.3,0,0.6-0.1,0.9
	c0.3,0,0.7,0.1,1,0.2c0.6-2.4-0.9-4.8-3.3-5.5S4.2,4.5,3.6,6.9c-0.5,1.8,0.3,3.7,1.8,4.8c0.2-0.3,0.4-0.5,0.7-0.8
	C5.1,10.3,4.5,9.2,4.5,8L4.5,8z"/>
<path class="st0" d="M13.9,11.2c-0.1,0-0.2,0-0.3,0c-1-1.4-2.9-1.8-4.4-0.9c-0.3,0.2-0.6,0.5-0.9,0.9c-0.1,0-0.2,0-0.3,0
	C7,11.2,6,12.2,6,13.3s0.9,2.1,2.1,2.1c0.3,0,0.6-0.1,0.8-0.2c1.2,1,2.9,1,4.1,0c0.3,0.1,0.5,0.2,0.8,0.2c1.2,0,2.1-0.9,2.1-2.1
	S15,11.2,13.9,11.2C13.9,11.2,13.9,11.2,13.9,11.2L13.9,11.2z M13.9,14.4c-0.2,0-0.3,0-0.4-0.1c-0.3-0.1-0.8-0.1-1,0.2
	c-0.8,0.7-2,0.7-2.8,0c-0.3-0.2-0.7-0.3-1-0.2c-0.1,0.1-0.3,0.1-0.4,0.1c-0.6,0-1.1-0.5-1.1-1.1s0.5-1.1,1.1-1.1c0,0,0.1,0,0.1,0
	l0.1,0c0.4,0,0.7-0.1,1-0.4c0.7-1,2-1.2,3-0.6c0.2,0.2,0.4,0.4,0.6,0.6c0.2,0.3,0.6,0.5,1,0.4l0.1,0c0,0,0.1,0,0.1,0
	c0.6,0,1.1,0.5,1.1,1.1S14.5,14.4,13.9,14.4z"/>
</svg>
