<?xml version="1.0" encoding="utf-8"?>
<!-- Generator: Adobe Illustrator 23.0.1, SVG Export Plug-In . SVG Version: 6.00 Build 0)  -->
<svg version="1.1" id="Layer_1" xmlns="http://www.w3.org/2000/svg" xmlns:xlink="http://www.w3.org/1999/xlink" x="0px" y="0px"
	 viewBox="0 0 16 16" style="enable-background:new 0 0 16 16;" xml:space="preserve">
<style type="text/css">
	.st0{fill-rule:evenodd;clip-rule:evenodd;fill:#FFFFFF;}
</style>
<path class="st0" d="M15.5,5.3c0-1.8-1.4-3.2-3.2-3.2c0,0,0,0,0,0c-0.1,0-0.3,0-0.4,0C10.5,0,7.6-0.7,5.5,0.8
	c-0.5,0.4-1,0.8-1.4,1.4c-0.1,0-0.3,0-0.4,0c-1.8,0-3.2,1.4-3.2,3.2s1.4,3.2,3.2,3.2c0.4,0,0.8-0.1,1.2-0.3c1.7,1.6,4.4,1.6,6.1,0
	c1.6,0.7,3.5-0.1,4.2-1.7C15.4,6.1,15.5,5.7,15.5,5.3z M12.3,7.5c-0.3,0-0.6-0.1-0.9-0.2c-0.4-0.2-0.8-0.1-1.1,0.2
	C9,8.7,7,8.7,5.6,7.4c-0.3-0.3-0.7-0.3-1-0.2c-1.1,0.5-2.4,0-2.9-1.2s0-2.4,1.2-2.9c0.3-0.1,0.6-0.2,0.9-0.2c0.1,0,0.1,0,0.2,0
	l0.1,0c0.4,0,0.8-0.1,1-0.4C6,1,8.3,0.5,10,1.6c0.4,0.3,0.8,0.6,1.1,1.1c0.2,0.3,0.6,0.5,1,0.4l0.1,0c0.1,0,0.1,0,0.2,0
	c1.2,0,2.2,1,2.2,2.2S13.5,7.5,12.3,7.5L12.3,7.5z M7.1,13.4c0,0.6,0.4,1,1,1s1-0.4,1-1c-0.2-0.7-0.6-1.4-1-2
	C7.6,12.1,7.3,12.7,7.1,13.4z M4,11.9c0,0.6,0.4,1,1,1s1-0.4,1-1c-0.2-0.7-0.6-1.4-1-2C4.6,10.6,4.2,11.2,4,11.9z M10,11.9
	c0,0.6,0.4,1,1,1s1-0.4,1-1c-0.2-0.7-0.6-1.4-1-2C10.6,10.6,10.2,11.2,10,11.9z M1.1,11.1c0,0.4,0.4,0.8,0.8,0.8s0.8-0.4,0.8-0.8
	C2.5,10.6,2.2,10,1.8,9.6C1.5,10,1.2,10.6,1.1,11.1z M13.5,11.1c0,0.4,0.4,0.8,0.8,0.8c0.4,0,0.8-0.4,0.8-0.8
	c-0.2-0.6-0.4-1.1-0.8-1.6C13.9,10,13.6,10.6,13.5,11.1L13.5,11.1z"/>
</svg>
