<?xml version="1.0" encoding="utf-8"?>
<!-- Generator: Adobe Illustrator 23.0.1, SVG Export Plug-In . SVG Version: 6.00 Build 0)  -->
<svg version="1.1" id="Layer_1" xmlns="http://www.w3.org/2000/svg" xmlns:xlink="http://www.w3.org/1999/xlink" x="0px" y="0px"
	 viewBox="0 0 16 16" style="enable-background:new 0 0 16 16;" xml:space="preserve">
<style type="text/css">
	.st0{fill-rule:evenodd;clip-rule:evenodd;fill:#FFFFFF;}
</style>
<path class="st0" d="M12.3,2.1c-0.1,0-0.3,0-0.4,0C10.5,0,7.6-0.7,5.5,0.8c-0.5,0.4-1,0.8-1.4,1.4c-0.1,0-0.3,0-0.4,0
	c-1.8,0-3.2,1.4-3.2,3.2s1.4,3.2,3.2,3.2c0.4,0,0.8-0.1,1.2-0.3c1.7,1.6,4.4,1.6,6.1,0c1.6,0.7,3.5-0.1,4.2-1.7
	c0.7-1.6-0.1-3.5-1.7-4.2C13.2,2.2,12.7,2.1,12.3,2.1z M12.3,7.5c-0.3,0-0.6-0.1-0.9-0.2c-0.4-0.2-0.8-0.1-1.1,0.2
	C9,8.7,7,8.7,5.6,7.4c-0.3-0.3-0.7-0.3-1-0.2c-1.1,0.5-2.4,0-2.9-1.2s0-2.4,1.2-2.9c0.3-0.1,0.6-0.2,0.9-0.2c0.1,0,0.1,0,0.2,0
	l0.1,0c0.4,0,0.8-0.1,1-0.4C6,1,8.3,0.5,10,1.6c0.4,0.3,0.8,0.6,1.1,1.1c0.2,0.3,0.6,0.5,1,0.4l0.1,0c0.1,0,0.1,0,0.2,0
	c1.2,0,2.2,1,2.2,2.2S13.5,7.5,12.3,7.5L12.3,7.5z M9.6,12.5c0,0.6,0.4,1,1,1s1-0.4,1-1c-0.2-0.7-0.6-1.4-1-2
	C10.2,11.1,9.8,11.8,9.6,12.5z M4.5,12.5c0,0.6,0.4,1,1,1s1-0.4,1-1c-0.2-0.7-0.6-1.4-1-2C5.1,11.1,4.7,11.8,4.5,12.5z"/>
</svg>
