<?xml version="1.0" encoding="utf-8"?>
<!-- Generator: Adobe Illustrator 23.0.1, SVG Export Plug-In . SVG Version: 6.00 Build 0)  -->
<svg version="1.1" id="Layer_1" xmlns="http://www.w3.org/2000/svg" xmlns:xlink="http://www.w3.org/1999/xlink" x="0px" y="0px"
	 viewBox="0 0 16 16" style="enable-background:new 0 0 16 16;" xml:space="preserve">
<style type="text/css">
	.st0{fill:#FFFFFF;}
</style>
<path class="st0" d="M12.6,7.2c-0.1,0-0.3,0-0.4,0c-1.5-2.3-4.6-3-6.9-1.5C4.7,6.2,4.2,6.7,3.8,7.3c-0.1,0-0.3,0-0.4,0
	C1.5,7.2,0,8.7,0,10.6S1.5,14,3.4,14c0.5,0,0.9-0.1,1.3-0.3c1.9,1.7,4.7,1.7,6.6,0c1.7,0.7,3.7-0.1,4.5-1.8s-0.1-3.7-1.8-4.5
	C13.5,7.3,13.1,7.2,12.6,7.2z M12.6,13c-0.3,0-0.6-0.1-0.9-0.2c-0.4-0.2-0.8-0.1-1.1,0.2c-1.5,1.3-3.7,1.3-5.2,0
	c-0.3-0.3-0.7-0.3-1.1-0.2c-1.2,0.5-2.6-0.1-3.1-1.3s0.1-2.6,1.3-3.1c0.3-0.1,0.6-0.2,0.9-0.2c0.1,0,0.1,0,0.2,0l0.1,0
	c0.4,0,0.8-0.1,1-0.4C5.9,6,8.3,5.4,10.2,6.6c0.5,0.3,0.9,0.7,1.2,1.2c0.2,0.3,0.6,0.5,1,0.4l0.1,0c0.1,0,0.1,0,0.2,0
	c1.3,0,2.4,1,2.4,2.3S14,13,12.6,13C12.7,13,12.6,13,12.6,13z"/>
<path class="st0" d="M4,6.1c0-0.8,0.7-1.5,1.5-1.5c0,0,0.1,0,0.1,0l0.1,0c0.4,0,0.8-0.1,1-0.4C7.5,3,9.2,2.6,10.5,3.4
	c0.3,0.2,0.6,0.5,0.8,0.8c0.2,0.3,0.6,0.5,1,0.4l0.1,0c0,0,0.1,0,0.1,0c0.8,0,1.5,0.7,1.5,1.5c0,0.2,0,0.4-0.1,0.5
	c0.3,0.1,0.6,0.3,0.9,0.5c0.6-1.2,0.1-2.7-1.1-3.3c-0.5-0.2-1-0.3-1.5-0.2C11,2,8.7,1.5,7,2.6C6.5,2.9,6.2,3.3,5.9,3.7
	c-0.1,0-0.2,0-0.3,0C4.1,3.7,3,4.8,3,6.2c0,0,0,0,0,0c0,0.2,0,0.3,0.1,0.5C3.3,6.4,3.6,6.2,4,6.1L4,6.1z"/>
</svg>
